<svg id="avatar" width="150" height="150" viewBox="0 0 135 164" fill="none" xmlns="http://www.w3.org/2000/svg">
    <!-- hoodie head bg -->
    <ellipse cx="68" cy="77" rx="41" ry="40" fill="url(#shade_color)"/>
    <!-- hoodie top gray curve -->
    <path d="M17.0153 74.5C16.6153 65.3 22.1667 50.5 26 44.5C28 41.1314 47.8486 34.0964 57.0153 31L17.0153 74.5Z" fill="url(#shade_color)"/>
    <path d="M117.5 73.5C118.5 64 111.349 48.5 107.515 42.5C105.515 39.1314 86.682 32.0964 77.5153 29L117.5 73.5Z" fill="url(#shade_color)"/>
    <!-- hoodie body -->
    <path d="M6.29667 116.5C11.4967 104.9 21.4633 98.3333 25.7967 96.5L107.297 95C112.097 97.8 119.63 104.833 122.797 108C132.797 117.2 134.63 132.833 134.297 139.5C132.297 157.9 114.797 156.167 106.297 153H30.7967C19.9967 157.4 11.2967 154.833 8.29668 153C-5.70332 145 1.13001 125.333 6.29667 116.5Z" fill="url(#hoodie_color)"/>
    <!-- right half face -->
    <path d="M35.6225 69.5C41.5 50 59.5 48 67.6225 48V114C67.6225 109.2 47.2983 102.746 42.1225 95.5C34.1225 84.3 34 76 35.6225 69.5Z" fill="url(#face_color)"/>
    <!-- left half face -->
    <path d="M100 69.5C95.0001 51 75.4999 48.6667 67.4999 48V114C67.4999 109.2 87.4636 102.465 93.5 95.5C100 88 101.757 76 100 69.5Z" fill="url(#face_color)"/>
    <!-- line between face halves -->
    <line x1="67.5" y1="48" x2="67.5" y2="112" stroke="#07080A"/>
    <!-- right sleeve shade -->
    <path d="M19.5 125.5C20.7 124.7 26.5 125.833 29 126.5L29.5 131L17 130C17.8 128.8 22.3333 127.833 24.5 127.5L19.5 125.5Z" fill="url(#shade_color)"/>
    <!-- left sleeve shade -->
    <path d="M118 125.275C116.8 124.475 111 125.333 108.5 126L108 130.775L120.5 129.775C119.7 128.575 115.167 127.608 113 127.275L118 125.275Z" fill="url(#shade_color)"/>
    <!-- laptop dark shade -->
    <path d="M28.3484 123.3C28.1651 122.089 29.1019 121 30.3259 121H106.843C108.007 121 108.925 121.99 108.837 123.151L106.5 154H33L28.3484 123.3Z" fill="url(#laptop_color)"/>
    <!-- hoodie right sharp edge -->
    <path d="M40 115.451L22.5 98.5C25.3 96.1 30.8333 95.7847 34 96.4514L40 115.451Z" fill="url(#shade_color)"/>
    <!-- hoodie left sharp edge -->
    <path d="M97.5 114L113.5 99.5002C111 96.5001 107 95 103.5 95L97.5 114Z" fill="url(#shade_color)"/>
    <!-- hoodie cap -->
    <path d="M17.7168 85.9355C23 96.5 32.7921 104.038 37.9495 111L31.4036 91.3064C28.2299 83.5484 26.2859 64.6903 43.9003 51.3226C61.5146 37.9548 82.5804 45.7527 90.9115 51.3226C106.146 61.8258 107.97 76.7849 106.979 82.9516C105.55 94.4097 100.83 106.425 98.6476 111C98.6476 111 115.38 95.371 117.69 85.9355C120 76.5 116.103 65.8441 112.929 59.6774C104.836 45.8323 92.4984 38.3925 87.3411 36.4032C94.9581 35.4484 104.797 41.5753 108.764 44.7581C105.431 19.9323 80.0017 4.57527 67.7034 0C42.9481 8.59355 29.6184 33.4194 26.0479 44.7581C35.0931 38.0742 44.4954 36.4032 48.0658 36.4032C35.2121 41.6548 25.2545 54.1075 21.8823 59.6774C16.2381 69 16 82.5025 17.7168 85.9355Z" fill="url(#hoodie_color)"/>
    <!-- pyxploiter text -->
    <g fill="url(#text_color)">
        <path d="M59.7636 146.736C59.7611 146.806 59.7343 146.866 59.6832 146.915C59.6345 146.963 59.5748 146.987 59.5042 146.984C59.4336 146.984 59.3739 146.959 59.3252 146.907C59.2765 146.859 59.2522 146.799 59.2522 146.728C59.2595 146.307 59.2632 145.591 59.2632 144.581C59.2632 144.51 59.2875 144.45 59.3362 144.402C59.3873 144.351 59.4482 144.325 59.5188 144.325C59.6114 144.325 59.6832 144.365 59.7343 144.446C59.9973 144.299 60.2481 144.28 60.4868 144.387C60.6962 144.485 60.8496 144.657 60.947 144.906C60.986 145.008 61.0091 145.115 61.0164 145.227C61.0261 145.337 61.0176 145.451 60.9908 145.571C60.9665 145.687 60.9153 145.798 60.8374 145.903C60.7595 146.008 60.6584 146.09 60.5343 146.151C60.3248 146.256 60.1373 146.284 59.9718 146.235C59.9036 146.216 59.8366 146.184 59.7709 146.14C59.7684 146.328 59.766 146.526 59.7636 146.736ZM60.1179 145.764C60.1544 145.776 60.2177 145.76 60.3078 145.717C60.4028 145.668 60.4661 145.585 60.4977 145.468C60.5294 145.349 60.5233 145.222 60.4795 145.088C60.4259 144.969 60.3577 144.89 60.2749 144.851C60.1897 144.812 60.1069 144.808 60.0265 144.84C59.9462 144.872 59.8622 144.954 59.7745 145.088V145.508C59.8232 145.599 59.878 145.664 59.9389 145.706C59.9998 145.745 60.0594 145.764 60.1179 145.764Z"/>
        <path d="M61.9743 146.915C61.9256 146.961 61.8672 146.983 61.799 146.98C61.7333 146.978 61.6773 146.952 61.631 146.904C61.5847 146.857 61.5628 146.8 61.5652 146.732C61.5677 146.666 61.592 146.61 61.6383 146.564C61.6748 146.53 61.715 146.493 61.7588 146.454C61.8051 146.418 61.8416 146.386 61.8684 146.36C61.8976 146.333 61.9244 146.304 61.9488 146.272C61.995 146.216 62.0389 146.155 62.0803 146.089C62.073 146.079 62.0681 146.069 62.0657 146.056L61.5506 144.661C61.5263 144.595 61.5275 144.531 61.5543 144.467C61.5835 144.402 61.631 144.357 61.6967 144.332C61.7625 144.308 61.827 144.31 61.8903 144.34C61.9561 144.366 62.0011 144.413 62.0255 144.478L62.3798 145.468C62.4358 145.32 62.5307 144.996 62.6647 144.497C62.6817 144.433 62.7195 144.386 62.7779 144.354C62.8363 144.323 62.8972 144.317 62.9605 144.336C63.0263 144.353 63.075 144.391 63.1066 144.449C63.1383 144.508 63.1444 144.57 63.1249 144.635C63.1176 144.657 63.0981 144.735 63.0665 144.869C63.0372 145.001 63.0165 145.085 63.0044 145.121C62.9922 145.158 62.9703 145.226 62.9386 145.326C62.9094 145.426 62.885 145.5 62.8656 145.549L62.7852 145.76C62.7511 145.848 62.7195 145.921 62.6902 145.98L62.588 146.177C62.549 146.252 62.5076 146.322 62.4638 146.385C62.42 146.451 62.3749 146.513 62.3286 146.571C62.297 146.613 62.258 146.654 62.2118 146.696L62.0657 146.827C62.0169 146.871 61.9865 146.9 61.9743 146.915Z"/>
        <path d="M64.3668 145.735C64.2743 145.869 64.1903 146.002 64.1148 146.133C64.0782 146.194 64.0247 146.234 63.9541 146.254C63.8859 146.271 63.8214 146.261 63.7605 146.224C63.6996 146.188 63.6594 146.134 63.6399 146.064C63.6229 145.991 63.6326 145.924 63.6692 145.863C63.7787 145.678 63.8993 145.484 64.0308 145.282L63.618 144.756C63.5742 144.7 63.5559 144.635 63.5632 144.562C63.5705 144.489 63.601 144.431 63.6545 144.387C63.7106 144.341 63.7739 144.321 63.8445 144.329C63.9151 144.336 63.9735 144.368 64.0198 144.424L64.3449 144.836L64.6261 144.427C64.6675 144.371 64.7235 144.338 64.7942 144.329C64.8648 144.319 64.9281 144.336 64.9841 144.38C65.0401 144.424 65.073 144.482 65.0827 144.555C65.0924 144.628 65.0754 144.694 65.0316 144.752L64.6736 145.271L65.0827 145.848C65.1241 145.907 65.1387 145.972 65.1265 146.045C65.1144 146.118 65.0791 146.176 65.0206 146.217C64.9622 146.256 64.8976 146.269 64.827 146.257C64.7564 146.245 64.7016 146.21 64.6627 146.151L64.3668 145.735Z"/>
        <path d="M66.2312 146.736C66.2288 146.806 66.202 146.866 66.1508 146.915C66.1021 146.963 66.0425 146.987 65.9719 146.984C65.9012 146.984 65.8416 146.959 65.7929 146.907C65.7442 146.859 65.7198 146.799 65.7198 146.728C65.7271 146.307 65.7308 145.591 65.7308 144.581C65.7308 144.51 65.7551 144.45 65.8038 144.402C65.855 144.351 65.9158 144.325 65.9865 144.325C66.079 144.325 66.1508 144.365 66.202 144.446C66.465 144.299 66.7158 144.28 66.9544 144.387C67.1638 144.485 67.3172 144.657 67.4146 144.906C67.4536 145.008 67.4767 145.115 67.484 145.227C67.4938 145.337 67.4852 145.451 67.4585 145.571C67.4341 145.687 67.383 145.798 67.305 145.903C67.2271 146.008 67.1261 146.09 67.0019 146.151C66.7925 146.256 66.605 146.284 66.4394 146.235C66.3712 146.216 66.3042 146.184 66.2385 146.14C66.2361 146.328 66.2336 146.526 66.2312 146.736ZM66.5855 145.764C66.622 145.776 66.6853 145.76 66.7754 145.717C66.8704 145.668 66.9337 145.585 66.9654 145.468C66.997 145.349 66.9909 145.222 66.9471 145.088C66.8935 144.969 66.8253 144.89 66.7425 144.851C66.6573 144.812 66.5745 144.808 66.4942 144.84C66.4138 144.872 66.3298 144.954 66.2421 145.088V145.508C66.2908 145.599 66.3456 145.664 66.4065 145.706C66.4674 145.745 66.527 145.764 66.5855 145.764Z"/>
        <path d="M68.6938 146.045C68.6914 146.116 68.6646 146.176 68.6135 146.224C68.5648 146.273 68.5051 146.296 68.4345 146.294C68.3639 146.294 68.3042 146.269 68.2555 146.221C68.2068 146.17 68.1825 146.109 68.1825 146.038C68.1873 146.038 68.1885 145.687 68.1861 144.986L68.1825 143.868C68.1825 143.798 68.2068 143.738 68.2555 143.689C68.3066 143.638 68.3675 143.613 68.4381 143.613C68.5088 143.613 68.5684 143.638 68.6171 143.689C68.6683 143.738 68.6938 143.798 68.6938 143.868C68.6938 144.063 68.6938 144.306 68.6938 144.595C68.6963 144.885 68.6975 145.148 68.6975 145.384C68.6975 145.618 68.6963 145.838 68.6938 146.045Z"/>
        <path d="M70.1255 146.279C69.9137 146.238 69.7481 146.14 69.6288 145.987C69.507 145.834 69.434 145.658 69.4096 145.461C69.3877 145.278 69.4084 145.096 69.4717 144.913C69.535 144.728 69.6373 144.576 69.7785 144.457C69.8346 144.408 69.9064 144.37 69.9941 144.343C69.9965 144.343 70.0221 144.336 70.0708 144.321C70.0902 144.317 70.1048 144.312 70.1146 144.307C70.1828 144.28 70.2509 144.282 70.3191 144.314C70.548 144.351 70.7014 144.388 70.7794 144.427C70.8695 144.471 70.9462 144.532 71.0095 144.61C71.0728 144.688 71.1166 144.771 71.141 144.858C71.1677 144.944 71.1872 145.035 71.1994 145.132C71.2116 145.227 71.2104 145.314 71.1957 145.392C71.1836 145.511 71.1568 145.627 71.1154 145.739C71.074 145.848 71.0107 145.953 70.9255 146.053C70.8402 146.153 70.7404 146.223 70.6259 146.265C70.4871 146.313 70.3203 146.318 70.1255 146.279ZM70.2205 145.782C70.3252 145.802 70.4044 145.802 70.4579 145.782C70.5042 145.765 70.5505 145.718 70.5967 145.64C70.6454 145.56 70.6759 145.459 70.688 145.337C70.7027 145.215 70.6953 145.115 70.6661 145.037C70.6369 144.957 70.6016 144.907 70.5602 144.888C70.5285 144.873 70.4993 144.863 70.4725 144.858C70.4458 144.851 70.4068 144.845 70.3557 144.84C70.307 144.833 70.2583 144.823 70.2096 144.811C70.1682 144.823 70.1462 144.829 70.1438 144.829L70.1073 144.844C70.0391 144.902 69.9867 144.982 69.9502 145.085C69.9137 145.187 69.9027 145.293 69.9173 145.403C69.9295 145.507 69.9612 145.592 70.0123 145.658C70.0659 145.724 70.1353 145.765 70.2205 145.782Z"/>
        <path d="M71.8945 146.005C71.8872 145.489 71.8909 145.006 71.9055 144.555C71.9079 144.485 71.9347 144.426 71.9858 144.38C72.0394 144.331 72.1015 144.308 72.1721 144.31C72.2427 144.313 72.3012 144.341 72.3475 144.394C72.3962 144.446 72.4193 144.506 72.4169 144.577C72.4022 145.032 72.3986 145.506 72.4059 145.998C72.4059 146.069 72.3815 146.129 72.3328 146.181C72.2841 146.229 72.2245 146.254 72.1539 146.254C72.0833 146.256 72.0224 146.233 71.9712 146.184C71.9225 146.135 71.897 146.076 71.8945 146.005ZM72.3292 143.686C72.3803 143.735 72.4059 143.797 72.4059 143.872C72.4059 143.945 72.3803 144.007 72.3292 144.058C72.2781 144.11 72.216 144.135 72.1429 144.135C72.0699 144.135 72.0078 144.11 71.9566 144.058C71.9055 144.007 71.8799 143.945 71.8799 143.872C71.8799 143.797 71.9055 143.733 71.9566 143.682C72.0078 143.631 72.0699 143.605 72.1429 143.605C72.216 143.605 72.2781 143.632 72.3292 143.686Z"/>
        <path d="M73.86 146.261C73.8113 146.261 73.7639 146.245 73.7176 146.213C73.6908 146.204 73.6652 146.191 73.6409 146.177L73.5459 146.122C73.4485 146.066 73.3755 146.014 73.3268 145.965C73.2854 145.911 73.2598 145.859 73.2501 145.808C73.2403 145.754 73.2342 145.676 73.2318 145.574V145.501C73.2294 145.431 73.2281 145.266 73.2281 145.008C73.2281 144.903 73.2294 144.824 73.2318 144.771H73.1624C73.1015 144.771 73.048 144.75 73.0017 144.709C72.9579 144.665 72.9359 144.61 72.9359 144.544C72.9359 144.476 72.9591 144.42 73.0053 144.376C73.0516 144.33 73.1052 144.307 73.1661 144.307H73.2318L73.2355 144.15V144.036C73.2379 143.959 73.2635 143.899 73.3122 143.857C73.3633 143.814 73.4217 143.792 73.4875 143.792C73.5557 143.792 73.6153 143.815 73.6665 143.861C73.72 143.907 73.7468 143.971 73.7468 144.051L73.7395 144.299H73.8747C73.9623 144.299 74.0281 144.323 74.0719 144.369C74.1157 144.415 74.1376 144.474 74.1376 144.544C74.1376 144.612 74.1145 144.671 74.0682 144.72C74.022 144.766 73.9538 144.789 73.8637 144.789H73.7286C73.7286 144.889 73.7273 144.963 73.7249 145.012C73.7225 145.063 73.7212 145.136 73.7212 145.231C73.7212 145.387 73.7261 145.522 73.7359 145.636C73.7456 145.646 73.7517 145.651 73.7541 145.651L73.7906 145.676L73.8199 145.691L73.8527 145.709L73.882 145.724C73.9258 145.743 73.9635 145.765 73.9952 145.79C74.0707 145.841 74.1084 145.909 74.1084 145.994C74.1084 146.062 74.0841 146.125 74.0354 146.181C73.9867 146.234 73.9282 146.261 73.86 146.261Z"/>
        <path d="M75.6109 146.286C75.4161 146.286 75.2456 146.245 75.0995 146.162C74.9534 146.079 74.8414 145.969 74.7635 145.83C74.688 145.691 74.6502 145.538 74.6502 145.37C74.6502 145.158 74.6892 144.975 74.7671 144.822C74.845 144.666 74.957 144.543 75.1031 144.453C75.2493 144.363 75.4148 144.318 75.5999 144.318C75.7898 144.318 75.9518 144.357 76.0857 144.435C76.2221 144.513 76.3243 144.618 76.3925 144.752C76.4607 144.884 76.4948 145.031 76.4948 145.194C76.4948 145.277 76.468 145.342 76.4144 145.388C76.3609 145.434 76.289 145.461 76.1989 145.468C76.0163 145.485 75.8544 145.494 75.7131 145.494C75.5792 145.494 75.4355 145.49 75.2821 145.483L75.1543 145.479C75.1689 145.599 75.2152 145.692 75.2931 145.76C75.3734 145.826 75.494 145.857 75.6547 145.852C75.7277 145.849 75.7862 145.841 75.83 145.826C75.8738 145.809 75.9128 145.785 75.9469 145.753C75.9664 145.734 75.9871 145.713 76.009 145.691C76.0309 145.669 76.0553 145.652 76.082 145.64C76.1088 145.628 76.1417 145.622 76.1807 145.622C76.244 145.622 76.2963 145.644 76.3377 145.687C76.3815 145.729 76.4035 145.778 76.4035 145.834C76.4035 145.911 76.3645 145.986 76.2866 146.056C76.2087 146.127 76.1076 146.183 75.9834 146.224C75.8617 146.266 75.7375 146.286 75.6109 146.286ZM75.1616 145.107C75.3053 145.126 75.4648 145.133 75.6401 145.129C75.8081 145.126 75.9311 145.115 76.009 145.096C76.0041 144.991 75.9725 144.907 75.914 144.844C75.858 144.78 75.7557 144.75 75.6072 144.752C75.483 144.755 75.382 144.783 75.304 144.836C75.2261 144.89 75.1786 144.98 75.1616 145.107Z"/>
        <path d="M77.2552 146.177C77.2041 146.128 77.1785 146.07 77.1785 146.002C77.1761 145.76 77.1749 145.571 77.1749 145.432C77.17 145.403 77.17 145.375 77.1749 145.348C77.1724 145.077 77.1712 144.833 77.1712 144.614C77.1712 144.519 77.1956 144.447 77.2443 144.398C77.2954 144.347 77.3563 144.321 77.4269 144.321C77.478 144.321 77.5243 144.336 77.5657 144.365C77.6095 144.392 77.6412 144.441 77.6607 144.511C77.7581 144.458 77.9042 144.397 78.099 144.329C78.1623 144.307 78.2232 144.31 78.2816 144.34C78.3425 144.366 78.3839 144.411 78.4058 144.475C78.4277 144.538 78.4241 144.6 78.3948 144.661C78.368 144.72 78.323 144.76 78.2597 144.782C78.0357 144.86 77.8445 144.936 77.6862 145.012C77.6765 145.09 77.6753 145.2 77.6826 145.344C77.685 145.498 77.6875 145.714 77.6899 145.994C77.6899 146.065 77.6643 146.126 77.6132 146.177C77.5645 146.228 77.5048 146.254 77.4342 146.254C77.366 146.254 77.3064 146.228 77.2552 146.177Z"/>
    </g>
    <!-- PY Logo -->
    <g fill="url(#logo_color)">
        <path d="M59 131.339C59 130.498 59.6814 129.817 60.5219 129.817H63.2613V141.992H59V131.339Z"/>
        <path d="M68.2836 131.339C68.2836 130.498 67.6022 129.817 66.7616 129.817H64.0222V138.035H66.7616C67.6022 138.035 68.2836 137.354 68.2836 136.513V131.339Z"/>
        <path d="M69.0447 129.817H73.306V138.035H70.5666C69.7261 138.035 69.0447 137.354 69.0447 136.513V129.817Z"/>
        <path d="M78.3282 131.339C78.3282 130.498 77.6469 129.817 76.8063 129.817H74.0669V141.992H76.8063C77.6469 141.992 78.3282 141.311 78.3282 140.47V131.339Z"/>
    </g>
    <!-- normal eyes -->
    <g fill="url(#surprised_eye_color)">
        <ellipse class="eye left-eye normal-eye" cx="82.1644" cy="71.1117" rx="9.82337" ry="6.0489" transform="rotate(-20.2957 82.1644 71.1117)"/>
        <ellipse class="eye right-eye normal-eye" cx="53.5317" cy="71.1502" rx="9.82337" ry="6.0489" transform="rotate(30 53.5317 71.1502)"/>
    </g>
    <!-- gradients definitions -->
    <defs>
        <linearGradient id="face_color"><stop stop-color="#07080A"/></linearGradient>
        <linearGradient id="hoodie_color"><stop stop-color="#DDE1E7"/></linearGradient>
        <linearGradient id="shade_color"><stop stop-color="#C3C5CB"/></linearGradient>
        <linearGradient id="logo_color"><stop stop-color="#CCC"/></linearGradient>
        <linearGradient id="text_color"><stop stop-color="#CCC"/></linearGradient>
        <linearGradient id="laptop_color"><stop stop-color="#475063"/></linearGradient>
        <linearGradient id="normal_eye_color"><stop stop-color="#1D9FB5"/></linearGradient>
        <linearGradient id="surprised_eye_color"><stop stop-color="#58E7FF"/></linearGradient>
        <linearGradient id="right_eye_color" x1="52" y1="72" x2="52" y2="77" gradientUnits="userSpaceOnUse">
            <stop stop-color="#FF2E01"/>
            <stop offset="1" stop-color="#9E2106"/>
        </linearGradient>
        <linearGradient id="left_eye_color" x1="84.0391" y1="72" x2="84.0391" y2="77" gradientUnits="userSpaceOnUse">
            <stop stop-color="#FF2E01"/>
            <stop offset="1" stop-color="#9E2106"/>
        </linearGradient>
    </defs>
</svg> 